<svg data-v-0dd9719b="" version="1.0" xmlns="http://www.w3.org/2000/svg" xmlns:xlink="http://www.w3.org/1999/xlink" width="100%" height="100%" viewBox="0 0 340.000000 250.000000" preserveAspectRatio="xMidYMid meet" color-interpolation-filters="sRGB" style="margin: auto;"> <rect data-v-0dd9719b="" x="0" y="0" width="100%" height="100%" fill="#fff" fill-opacity="1" class="background"></rect> <rect data-v-0dd9719b="" x="0" y="0" width="100%" height="100%" fill="url(#watermark)" fill-opacity="1" class="watermarklayer"></rect> <g data-v-0dd9719b="" fill="#333" class="icon-text-wrapper icon-svg-group iconsvg" transform="translate(49.07499694824219,95.2646427154541)"><g class="iconsvg-imagesvg" transform="translate(0,0)"><g><rect fill="#333" fill-opacity="0" stroke-width="2" x="0" y="0" width="60" height="59.470710674992574" class="image-rect"></rect> <svg x="0" y="0" width="60" height="59.470710674992574" filtersec="colorsb3533129868" class="image-svg-svg primary" style="overflow: visible;"><svg xmlns="http://www.w3.org/2000/svg" viewBox="0 0 243.77999877929688 241.6300048828125"><path fill="#ff525b" d="M122.89 0l-49 47v98l49-45 48 45V47l-48-47z"></path><path fill="#447c9d" d="M184.89 60.86v28.28l30.6 30.61-93.6 93.6-93.61-93.6 28.61-28.61V62.86L0 119.75l121.89 121.88 121.89-121.88-58.89-58.89z"></path></svg></svg> <!----></g></g> <g transform="translate(67,1.5862960815429688)"><g data-gra="path-name" fill-rule="" class="tp-name iconsvg-namesvg" transform="translate(0,0)"><g transform="scale(1)"><g><path d="M24.74-26.06L24.74-26.06 39.55-26.06Q42.32-26.06 42.32-23.29 42.32-20.52 39.55-20.52L39.55-20.52 26.59-20.52Q30.45-8.75 39.42-3.21L39.42-3.21Q41.35-2.2 41.77-1.12 42.19-0.04 41 1.67L41 1.67Q39.33 3.78 36.52 2.29L36.52 2.29Q27.47-3.25 22.63-15.29L22.63-15.29Q19.03-3.91 9.05 2.15L9.05 2.15Q5.93 3.78 4.31 1.93L4.31 1.93Q2.02-0.7 6.33-3.08L6.33-3.08Q15.56-9.01 18.19-20.52L18.19-20.52 5.58-20.52Q2.86-20.52 2.86-23.29 2.86-26.06 5.58-26.06L5.58-26.06 19.07-26.06Q19.47-29.71 19.47-35.38L19.47-35.38Q19.51-38.06 22.37-38.06L22.37-38.06Q23.86-38.06 24.57-37.4 25.27-36.74 25.22-35.33L25.22-35.33Q25.14-29.66 24.74-26.06ZM84.55-29.09L84.55-29.09 70.14-29.09Q68.64-25.58 67.19-23.16L67.19-23.16 72.38-23.16 72.38-24.83Q72.38-27.6 75.1-27.6L75.1-27.6Q77.87-27.6 77.87-24.83L77.87-24.83 77.87-23.16 82.92-23.16Q85.43-23.16 85.43-20.65L85.43-20.65Q85.43-18.24 82.97-18.24L82.97-18.24 77.87-18.24 77.87-14.19 84.86-14.19Q87.36-14.19 87.36-11.69 87.36-9.18 84.86-9.18L84.86-9.18 77.87-9.18 77.87-5.58Q77.87-2.86 75.1-2.86L75.1-2.86Q72.38-2.86 72.38-5.58L72.38-5.58 72.38-9.18 61.83-9.18Q59.37-9.18 59.37-11.69 59.37-14.19 61.83-14.19L61.83-14.19 72.38-14.19 72.38-18.24 66.23-18.24Q65.87-18.24 65.06-18.17 64.25-18.11 63.81-18.13 63.37-18.15 62.75-18.28 62.14-18.41 61.72-18.85 61.3-19.29 61.08-20L61.08-20Q60.91-20.87 60.84-21.36 60.78-21.84 61.04-22.5 61.3-23.16 61.52-23.51 61.74-23.86 62.14-24.43 62.53-25 62.71-25.36L62.71-25.36Q63.54-26.81 64.51-29.09L64.51-29.09 62.05-29.09Q59.77-29.09 59.77-31.38 59.77-33.66 62.05-33.66L62.05-33.66 66.23-33.66Q66.31-33.93 66.51-34.5 66.71-35.07 66.8-35.38L66.8-35.38Q67.59-38.14 70.36-37.44 73.13-36.74 72.11-33.93L72.11-33.93Q72.07-33.88 72.07-33.79 72.07-33.71 72.03-33.66L72.03-33.66 84.55-33.66Q86.84-33.66 86.84-31.38 86.84-29.09 84.55-29.09ZM53-29.09L53-29.09Q51.94-30.72 50.1-33.09L50.1-33.09Q48.47-35.02 50.67-36.47L50.67-36.47Q52.56-37.66 53.92-36.12L53.92-36.12Q56.25-33.49 57.57-31.6L57.57-31.6Q58.18-30.5 57.96-29.82 57.74-29.14 56.69-28.39L56.69-28.39Q55.5-27.55 54.62-27.71 53.75-27.86 53-29.09ZM49.48-23.25L49.48-23.25 54.8-23.25Q55.9-23.25 56.56-22.61 57.22-21.97 57.22-20.87L57.22-20.87 57.22-5.63Q59.06-4.35 59.85-3.91L59.85-3.91Q61.96-2.64 64.86-2.22 67.76-1.8 72.25-1.8L72.25-1.8Q78.4-1.8 85.17-2.5L85.17-2.5Q87.19-2.72 87.85-2.07 88.51-1.41 88.02 0.53L88.02 0.53Q87.63 1.98 87.08 2.53 86.53 3.08 85.12 3.12L85.12 3.12Q76.73 3.52 71.94 3.52L71.94 3.52Q67.32 3.52 64.36 2.99 61.39 2.46 59.02 1.1L59.02 1.1Q58.23 0.66 57.19-0.04 56.16-0.75 55.5-1.14 54.84-1.54 54.4-1.54L54.4-1.54Q53.61-1.54 52.51-0.13L52.51-0.13Q51.72 1.14 50.89 1.78 50.05 2.42 49.11 2.29 48.16 2.15 47.37 1.05L47.37 1.05Q45.83-1.1 48.08-3.38L48.08-3.38Q50.23-5.27 52.12-6.11L52.12-6.11 52.12-17.27Q52.12-18.37 51.02-18.37L51.02-18.37 49.48-18.37Q47.07-18.37 47.07-20.83L47.07-20.83Q47.07-23.25 49.48-23.25ZM124.1-5.71L124.1-28.34 101.73-28.34Q100.68-28.34 100.68-27.29L100.68-27.29 100.68-19.82 118.78-19.82Q121.51-19.82 121.51-17.09L121.51-17.09Q121.51-14.41 118.78-14.41L118.78-14.41 100.68-14.41 100.68-6.81Q100.68-5.71 101.73-5.71L101.73-5.71 124.1-5.71ZM98.17-33.75L98.17-33.75 126.87-33.75Q128.19-33.75 128.98-32.94 129.77-32.12 129.77-30.81L129.77-30.81 129.77-3.21Q129.77-1.89 128.98-1.08 128.19-0.26 126.87-0.26L126.87-0.26 98.17-0.26Q96.86-0.26 96.06-1.08 95.27-1.89 95.27-3.21L95.27-3.21 95.27-30.81Q95.27-32.12 96.06-32.94 96.86-33.75 98.17-33.75ZM173.85-24.96L173.85-24.96 141.42-24.96Q138.82-24.96 138.82-27.64L138.82-27.64Q138.82-30.23 141.42-30.23L141.42-30.23 154.64-30.23 154.64-35.33Q154.64-38.06 157.41-38.06L157.41-38.06Q160.14-38.06 160.14-35.33L160.14-35.33 160.14-30.23 173.85-30.23Q176.44-30.23 176.44-27.64L176.44-27.64Q176.44-24.96 173.85-24.96ZM147.04-12.96L147.04-12.96Q146.21-16.79 145.42-19.42L145.42-19.42Q144.58-22.02 147.26-22.68L147.26-22.68Q149.63-23.29 150.42-21.01L150.42-21.01Q152.58-14.72 153.54-8.17L153.54-8.17Q153.72-6.99 153.19-6.37 152.67-5.76 151.44-5.41L151.44-5.41Q149.85-5.01 149.04-5.47 148.23-5.93 148.05-7.47L148.05-7.47Q147.88-8.96 147.04-12.96ZM175.03 2.15L175.03 2.15 140.1 2.15Q137.42 2.15 137.42-0.53 137.42-3.21 140.1-3.21L140.1-3.21 159.61-3.21Q162.38-10.85 164.18-20.39L164.18-20.39Q164.62-23.51 167.7-22.94L167.7-22.94Q170.82-22.37 169.98-19.12L169.98-19.12Q167.52-9.54 165.19-3.21L165.19-3.21 175.03-3.21Q177.71-3.21 177.71-0.53 177.71 2.15 175.03 2.15Z" transform="translate(-2.8600001335144043, 38.060001373291016)"></path></g> <!----> <!----> <!----> <!----> <!----> <!----> <!----></g></g> <g data-gra="path-slogan" fill-rule="" class="tp-slogan iconsvg-slogansvg" fill="#333" transform="translate(47.910003662109375,47.58000183105469)"><!----> <!----> <g transform="scale(1, 1)"><g transform="scale(1)"><path d="M4.41 0L0.94 0L0.94-8.58L4.45-8.58Q7.92-8.39 8.06-4.41L8.06-4.41Q7.88-0.09 4.41 0L4.41 0ZM4.27-7.64L2.11-7.64L2.11-0.98L4.36-0.98Q6.80-1.13 6.89-4.31L6.89-4.31Q6.84-7.55 4.27-7.64L4.27-7.64ZM15.19 0L14.34-2.48L10.88-2.48L9.98 0L8.81 0L12.05-8.58L13.36-8.58L16.45 0L15.19 0ZM12.61-7.31L11.25-3.52L13.92-3.52L12.66-7.31L12.61-7.31ZM17.48-8.58L18.66-8.58L18.66-1.03L23.02-1.03L23.02 0L17.48 0L17.48-8.58ZM24.33-8.58L25.50-8.58L25.50 0L24.33 0L24.33-8.58ZM33.14 0L32.30-2.48L28.83-2.48L27.94 0L26.77 0L30-8.58L31.31-8.58L34.41 0L33.14 0ZM30.56-7.31L29.20-3.52L31.88-3.52L30.61-7.31L30.56-7.31ZM36.84-8.58L41.16-1.64L41.16-8.58L42.28-8.58L42.28 0L40.97 0L36.61-6.94L36.56-6.94L36.56 0L35.44 0L35.44-8.58L36.84-8.58ZM54.33-8.58L51.09-3.47L51.09 0L49.92 0L49.92-3.47L46.69-8.58L48.05-8.58L50.48-4.45L52.97-8.58L54.33-8.58ZM61.03-3.19L61.03-8.58L62.20-8.58L62.20-3.05Q62.06 0.05 58.69 0.14L58.69 0.14Q55.55 0.05 55.41-2.86L55.41-2.86L55.41-8.58L56.58-8.58L56.58-3.19Q56.63-0.84 58.73-0.80L58.73-0.80Q61.03-0.84 61.03-3.19L61.03-3.19ZM65.30-1.03L70.45-1.03L70.45 0L64.13 0L64.13-8.58L70.36-8.58L70.36-7.59L65.30-7.59L65.30-4.92L69.98-4.92L69.98-3.89L65.30-3.89L65.30-1.03ZM71.95-8.58L73.13-8.58L73.13-1.03L77.48-1.03L77.48 0L71.95 0L71.95-8.58ZM78.80-8.58L79.97-8.58L79.97 0L78.80 0L78.80-8.58Z" transform="translate(-0.9375, 8.578125)"></path></g></g></g></g></g><defs v-gra="od"></defs></svg>